<?xml version="1.0" encoding="utf-8"?>
<!-- Generator: Adobe Illustrator 19.2.1, SVG Export Plug-In . SVG Version: 6.00 Build 0)  -->
<svg version="1.1" id="_x3F__x3F__x3F__x3F__1" xmlns="http://www.w3.org/2000/svg" xmlns:xlink="http://www.w3.org/1999/xlink"
	 x="0px" y="0px" viewBox="0 0 138.1 26.9" enable-background="new 0 0 138.1 26.9" xml:space="preserve">
<path fill-rule="evenodd" clip-rule="evenodd" fill="#EF3824" stroke="#EF3824" stroke-width="0.216" stroke-miterlimit="22.9256" d="
	M18.2,8.8C15,7.8,8.9,4.2,3.7,8.3c-1.8,1.4-3,3.7-2.7,6.6c0.2,1.9,1.5,5.8,2.8,6.3c0.1-2.1,0.2-3.7,0.8-5.3c0.6-1.7,1-3,2.2-4
	c0.4,4.5,1.6,10.1,6,12.3c5,2.5,10-0.9,11.6-4.9c-1.5,0.3-7.2,2.7-9.8,1.1c2.2-1.7,3.3-1.7,5.3-4c7-8,1.9-15.3-7.9-14.9
	C12.8,2.5,17,4.6,18.2,8.8z"/>
<path fill-rule="evenodd" clip-rule="evenodd" fill="#00A347" d="M18.2,8.8c-1.2-4.2-5.4-6.3-6.3-7.5c9.8-0.4,14.9,6.9,7.9,14.9
	c-2,2.3-3.1,2.3-5.3,4c2.6,1.5,8.3-0.8,9.8-1.1c-1.6,4.1-6.6,7.4-11.6,4.9c-4.4-2.2-5.5-7.8-6-12.3c-1.2,1-1.6,2.3-2.2,4
	c-0.6,1.7-0.7,3.3-0.8,5.3c-1.3-0.5-2.6-4.3-2.8-6.3c-0.3-2.9,1-5.2,2.7-6.6C8.9,4.2,15,7.8,18.2,8.8L18.2,8.8z M10.8,0.7
	C-6.7,4.1-1.4,30,16,26.6c6.5-1.3,11.8-7.9,10.3-15.6C25,4.5,18.6-0.9,10.8,0.7z"/>
<g>
	<g>
		<path fill="#00A347" d="M41.8,17.9h-4.7l-0.6,2.2h-4.2l5-13.3h4.5l5,13.3h-4.3L41.8,17.9z M40.9,15l-1.5-4.8L38,15H40.9z"/>
		<path fill="#00A347" d="M55.7,13.2h-4.1v6.9h-3.7v-9.6h7.8V13.2z"/>
		<path fill="#00A347" d="M57.2,23.8V10.5h3.4v1.4c0.5-0.6,0.9-1,1.3-1.2c0.5-0.3,1.1-0.4,1.8-0.4c1.3,0,2.3,0.5,3,1.5
			c0.7,1,1.1,2.2,1.1,3.6c0,1.6-0.4,2.8-1.1,3.7c-0.8,0.8-1.7,1.3-2.9,1.3c-0.6,0-1.1-0.1-1.6-0.3s-0.9-0.5-1.3-0.9v4.6H57.2z
			 M60.9,15.3c0,0.8,0.2,1.3,0.5,1.7c0.3,0.4,0.7,0.6,1.2,0.6c0.4,0,0.8-0.2,1.1-0.5c0.3-0.4,0.4-1,0.4-1.8c0-0.8-0.2-1.3-0.5-1.7
			C63.4,13.2,63,13,62.6,13c-0.5,0-0.9,0.2-1.2,0.6S60.9,14.5,60.9,15.3z"/>
		<path fill="#00A347" d="M69.1,15.3c0-1.5,0.5-2.7,1.5-3.6c1-0.9,2.3-1.4,4-1.4c1.9,0,3.4,0.6,4.4,1.7c0.8,0.9,1.2,2,1.2,3.3
			c0,1.5-0.5,2.7-1.5,3.6c-1,0.9-2.3,1.4-4.1,1.4c-1.5,0-2.8-0.4-3.7-1.2C69.7,18.2,69.1,16.9,69.1,15.3z M72.8,15.3
			c0,0.9,0.2,1.5,0.5,1.9c0.3,0.4,0.8,0.6,1.3,0.6c0.5,0,1-0.2,1.3-0.6s0.5-1.1,0.5-1.9c0-0.8-0.2-1.5-0.5-1.9
			c-0.3-0.4-0.8-0.6-1.3-0.6c-0.5,0-1,0.2-1.3,0.6S72.8,14.5,72.8,15.3z"/>
		<path fill="#00A347" d="M86.3,11.9h2.2c2,0,3.5,0.4,4.5,1.1c1,0.7,1.5,1.8,1.5,3.3c0,1.2-0.4,2.2-1.3,2.8c-0.9,0.6-2.2,1-3.8,1h-7
			V6.8h11.2v2.7h-7.1V11.9z M86.3,17.2h2.1c1.3,0,1.9-0.5,1.9-1.4c0-0.8-0.6-1.2-1.9-1.2h-2.1V17.2z"/>
		<path fill="#00A347" d="M99.7,13.6l-3.5-0.4c0.1-0.6,0.3-1.1,0.6-1.5c0.3-0.4,0.6-0.7,1.1-0.9c0.3-0.2,0.8-0.3,1.4-0.4
			c0.6-0.1,1.2-0.2,1.9-0.2c1.1,0,2,0.1,2.7,0.2s1.2,0.4,1.7,0.8c0.3,0.3,0.6,0.7,0.7,1.2c0.2,0.5,0.3,1,0.3,1.4v4.2
			c0,0.5,0,0.8,0.1,1.1c0.1,0.3,0.2,0.6,0.4,1h-3.5c-0.1-0.2-0.2-0.4-0.3-0.6c0-0.1-0.1-0.3-0.1-0.6c-0.5,0.5-1,0.8-1.4,1
			c-0.7,0.3-1.4,0.4-2.3,0.4c-1.1,0-2-0.3-2.6-0.8c-0.6-0.5-0.9-1.2-0.9-2c0-0.7,0.2-1.3,0.6-1.8c0.4-0.5,1.2-0.8,2.4-1
			c1.4-0.3,2.3-0.5,2.7-0.6c0.4-0.1,0.8-0.3,1.3-0.4c0-0.5-0.1-0.8-0.3-0.9s-0.5-0.3-1-0.3c-0.6,0-1.1,0.1-1.4,0.3
			C100,12.9,99.8,13.2,99.7,13.6z M102.9,15.5c-0.5,0.2-1,0.3-1.6,0.5c-0.7,0.2-1.2,0.4-1.4,0.6c-0.2,0.2-0.3,0.4-0.3,0.7
			c0,0.3,0.1,0.5,0.3,0.7c0.2,0.2,0.5,0.3,0.9,0.3c0.4,0,0.8-0.1,1.1-0.3c0.4-0.2,0.6-0.4,0.8-0.7c0.1-0.3,0.2-0.7,0.2-1.1V15.5z"/>
		<path fill="#00A347" d="M117.6,15.1c0.6,0.2,1,0.5,1.4,0.8c0.3,0.4,0.5,0.8,0.5,1.3c0,1-0.5,1.8-1.4,2.3c-1,0.5-2.4,0.8-4.2,0.8
			c-1.5,0-2.8-0.3-3.6-0.9s-1.5-1.4-1.9-2.6l3.5-0.4c0.1,0.3,0.4,0.6,0.7,0.9c0.4,0.3,0.8,0.4,1.3,0.4c1.2,0,1.9-0.3,1.9-0.9
			c0-0.2-0.1-0.4-0.4-0.5c-0.2-0.1-0.5-0.2-0.9-0.2h-1.6v-1.9h1.6c0.3,0,0.6-0.1,0.9-0.2c0.3-0.1,0.4-0.3,0.4-0.5
			c0-0.2-0.2-0.4-0.5-0.6c-0.3-0.1-0.7-0.2-1.3-0.2c-0.5,0-1,0.1-1.4,0.3s-0.6,0.5-0.7,0.8l-3.4-0.5c0.3-1.1,0.9-1.9,1.8-2.4
			s2.1-0.8,3.6-0.8c1.6,0,2.9,0.3,3.8,0.8c0.9,0.5,1.4,1.2,1.4,2C119.1,14,118.6,14.7,117.6,15.1z"/>
		<path fill="#00A347" d="M124.6,13.6l-3.5-0.4c0.1-0.6,0.3-1.1,0.6-1.5c0.3-0.4,0.6-0.7,1.1-0.9c0.3-0.2,0.8-0.3,1.4-0.4
			c0.6-0.1,1.2-0.2,1.9-0.2c1.1,0,2,0.1,2.7,0.2s1.2,0.4,1.7,0.8c0.3,0.3,0.6,0.7,0.7,1.2c0.2,0.5,0.3,1,0.3,1.4v4.2
			c0,0.5,0,0.8,0.1,1.1c0.1,0.3,0.2,0.6,0.4,1h-3.5c-0.1-0.2-0.2-0.4-0.3-0.6c0-0.1-0.1-0.3-0.1-0.6c-0.5,0.5-1,0.8-1.4,1
			c-0.7,0.3-1.4,0.4-2.3,0.4c-1.1,0-2-0.3-2.6-0.8c-0.6-0.5-0.9-1.2-0.9-2c0-0.7,0.2-1.3,0.6-1.8c0.4-0.5,1.2-0.8,2.4-1
			c1.4-0.3,2.3-0.5,2.7-0.6c0.4-0.1,0.8-0.3,1.3-0.4c0-0.5-0.1-0.8-0.3-0.9s-0.5-0.3-1-0.3c-0.6,0-1.1,0.1-1.4,0.3
			C124.9,12.9,124.7,13.2,124.6,13.6z M127.8,15.5c-0.5,0.2-1,0.3-1.6,0.5c-0.7,0.2-1.2,0.4-1.4,0.6c-0.2,0.2-0.3,0.4-0.3,0.7
			c0,0.3,0.1,0.5,0.3,0.7c0.2,0.2,0.5,0.3,0.9,0.3c0.4,0,0.8-0.1,1.1-0.3c0.4-0.2,0.6-0.4,0.8-0.7c0.1-0.3,0.2-0.7,0.2-1.1V15.5z"/>
	</g>
	<g>
		<path fill="#00A347" d="M133.6,4.7V1.5h1.6c0.3,0,0.5,0,0.7,0.1c0.2,0.1,0.3,0.1,0.4,0.3c0.1,0.1,0.1,0.3,0.1,0.5
			c0,0.2,0,0.3-0.1,0.5s-0.2,0.2-0.3,0.3c-0.1,0.1-0.2,0.1-0.3,0.1c0.1,0,0.2,0.1,0.3,0.1c0,0,0.1,0.1,0.2,0.2
			c0.1,0.1,0.1,0.2,0.1,0.2l0.5,0.9h-1.1l-0.5-1c-0.1-0.1-0.1-0.2-0.2-0.2c-0.1,0-0.2-0.1-0.2-0.1h-0.1v1.3H133.6z M134.5,2.8h0.4
			c0,0,0.1,0,0.3,0c0.1,0,0.1,0,0.2-0.1s0.1-0.1,0.1-0.2c0-0.1,0-0.2-0.1-0.2s-0.2-0.1-0.4-0.1h-0.4V2.8z"/>
	</g>
	
		<circle fill-rule="evenodd" clip-rule="evenodd" fill="none" stroke="#00A347" stroke-width="0.5669" stroke-miterlimit="22.9256" cx="135" cy="3.1" r="2.7"/>
</g>
</svg>
